#!OML:ASF F:\VICON\USERDATA\INSTALL\rory3\rory3.ASF
:FULLY-SPECIFIED
:DEGREES
252
root -4.30325 17.9879 11.7267 15.0503 78.7686 15.5499
lowerback 11.229 1.84489 -1.97593
upperback 1.21163 2.2142 -0.644779
thorax -5.07564 1.14368 0.0957201
lowerneck -19.6396 -3.86715 -10.8431
upperneck 32.3994 -3.18831 5.94111
head 14.8432 -1.64737 3.82418
rclavicle -1.01877e-015 6.36111e-015
rhumerus -26.5038 -13.6454 -79.6912
rradius 36.2737
rwrist 5.8143
rhand -15.4668 10.2503
rfingers 7.12502
rthumb 10.7145 -19.4565
lclavicle -1.01877e-015 6.36111e-015
lhumerus -40.0563 11.8598 75.676
lradius 22.574
lwrist -14.8626
lhand -13.106 26.242
lfingers 7.12502
lthumb 12.991 55.8175
rfemur -6.13289 -5.32238 13.1932
rtibia 63.9733
rfoot 12.9599 -3.49788
rtoes 4.15506
lfemur -6.81797 8.68855 -32.0224
ltibia 8.00887
lfoot 0.940001 -4.26913
ltoes 21.0185
253
root -4.189 17.9793 11.7469 17.4893 79.2664 18.1603
lowerback 11.3707 1.81666 -2.27942
upperback 1.22926 2.13407 -0.707461
thorax -5.14314 1.11094 0.208805
lowerneck -19.5654 -3.95887 -10.8766
upperneck 32.4821 -3.32237 5.96957
head 14.8821 -1.70355 3.82145
rclavicle 1.24986e-014 -1.98785e-016
rhumerus -26.6462 -13.8137 -79.6889
rradius 36.4017
rwrist 5.59063
rhand -14.7699 10.2778
rfingers 7.12502
rthumb 11.3867 -19.393
lclavicle 1.24986e-014 -1.98785e-016
lhumerus -39.7301 10.798 76.6754
lradius 23.5044
lwrist -14.0511
lhand -13.308 26.6205
lfingers 7.12502
lthumb 12.7963 56.2083
rfemur -7.28681 -5.64562 12.8014
rtibia 65.2146
rfoot 11.3936 -3.58997
rtoes 3.13925
lfemur -6.21602 8.60125 -32.4084
ltibia 8.02717
lfoot 0.472189 -4.55278
ltoes 19.1972
254
root -4.07676 17.9728 11.7668 19.2566 79.818 20.029
lowerback 11.4708 1.73112 -2.45643
upperback 1.24748 1.99867 -0.670349
thorax -5.184 1.0489 0.365686
lowerneck -19.5294 -3.99624 -10.8763
upperneck 32.5415 -3.35585 5.91373
head 14.9049 -1.72464 3.79434
rclavicle -1.26725e-015 -6.95746e-015
rhumerus -26.7617 -13.8567 -79.7001
rradius 36.5797
rwrist 5.33959
rhand -14.0935 10.1512
rfingers 7.12502
rthumb 12.0389 -19.4825
lclavicle -1.26725e-015 -6.95746e-015
lhumerus -39.4308 10.1987 77.5194
lradius 24.3759
lwrist -13.5379
lhand -13.526 27.0638
lfingers 7.12502
lthumb 12.5861 56.6646
rfemur -8.48644 -5.91724 12.661
rtibia 66.2447
rfoot 10.1614 -3.75289
rtoes 1.9818
lfemur -5.69749 8.50427 -32.5158
ltibia 8.10722
lfoot 0.098138 -4.89281
ltoes 19.4185
255
root -3.96309 17.9741 11.7873 20.7378 80.3837 21.5562
lowerback 11.5177 1.59695 -2.54425
upperback 1.25992 1.81205 -0.610587
thorax -5.19665 0.959684 0.506245
lowerneck -19.5381 -3.9682 -10.9677
upperneck 32.6235 -3.30736 6.00806
head 14.9437 -1.70147 3.86355
rclavicle -2.86995e-014 2.98177e-015
rhumerus -26.8457 -13.6868 -79.8134
rradius 36.5954
rwrist 5.57283
rhand -14.3892 10.0208
rfingers 7.12502
rthumb 11.7538 -19.6294
lclavicle -2.86995e-014 2.98177e-015
lhumerus -39.0944 9.71002 78.2446
lradius 25.1387
lwrist -13.0959
lhand -14.8103 27.5668
lfingers 7.12502
lthumb 11.3477 57.2398
rfemur -9.7298 -5.92424 12.6485
rtibia 67.1065
rfoot 9.0008 -4.33313
rtoes 1.93527
lfemur -5.27796 8.40977 -32.5035
ltibia 8.31914
lfoot -0.283887 -5.31337
ltoes 21.1738
256
root -3.84777 17.9782 11.8057 22.3917 80.9406 23.2777
lowerback 11.5827 1.50825 -2.51705
upperback 1.2682 1.69597 -0.625899
thorax -5.2194 0.902357 0.491965
lowerneck -19.5286 -4.02177 -10.9896
upperneck 32.7153 -3.37605 6.01702
head 14.9936 -1.73127 3.86297
rclavicle -8.12532e-015 1.13307e-014
rhumerus -26.978 -13.8048 -79.9137
rradius 36.5117
rwrist 5.6671
rhand -14.6564 10.0759
rfingers 7.12502
rthumb 11.4961 -19.5888
lclavicle -8.12532e-015 1.13307e-014
lhumerus -38.6752 8.89218 78.9959
lradius 25.8985
lwrist -12.5553
lhand -15.2531 27.9483
lfingers 7.12502
lthumb 10.9207 57.6443
rfemur -10.9389 -5.67997 12.6591
rtibia 67.827
rfoot 7.75705 -4.88588
rtoes 2.01421
lfemur -4.8677 8.31467 -32.531
ltibia 8.59825
lfoot -0.784754 -5.76735
ltoes 21.2338
257
root -3.73575 17.9704 11.8246 24.7976 81.4408 25.7561
lowerback 11.6493 1.4888 -2.59214
upperback 1.2768 1.65763 -0.666782
thorax -5.24714 0.885378 0.495987
lowerneck -19.4405 -4.13981 -11.0061
upperneck 32.7221 -3.53434 5.97462
head 14.9958 -1.8053 3.81889
rclavicle -1.30204e-014 -2.78299e-015
rhumerus -27.2184 -14.0012 -79.9018
rradius 36.5719
rwrist 5.40633
rhand -14.5023 10.0915
rfingers 7.12502
rthumb 11.6447 -19.5649
lclavicle -1.30204e-014 -2.78299e-015
lhumerus -38.1629 7.90233 79.8255
lradius 26.5865
lwrist -12.0912
lhand -15.5034 28.1112
lfingers 7.12502
lthumb 10.6792 57.8198
rfemur -12.1437 -5.49109 12.554
rtibia 68.4247
rfoot 6.50639 -5.21958
rtoes 1.77262
lfemur -4.44426 8.22723 -32.6653
ltibia 8.774
lfoot -1.2649 -6.22514
ltoes 20.4201
258
root -3.62126 17.957 11.8448 28.6751 81.9825 29.7265
lowerback 11.6992 1.41401 -2.79546
upperback 1.30045 1.53064 -0.711495
thorax -5.2503 0.827441 0.583217
lowerneck -19.3557 -4.21464 -11.1562
upperneck 32.7153 -3.63774 6.09437
head 14.9932 -1.85012 3.87721
rclavicle -1.1455e-014 1.2921e-014
rhumerus -27.479 -13.8853 -79.8964
rradius 36.7349
rwrist 4.8997
rhand -14.3971 9.94552
rfingers 7.12502
rthumb 11.7462 -19.7051
lclavicle -1.1455e-014 1.2921e-014
lhumerus -37.664 7.19413 80.5471
lradius 27.2193
lwrist -11.68
lhand -17.1752 28.1345
lfingers 7.12502
lthumb 9.06632 57.9196
rfemur -13.2362 -5.54986 12.2899
rtibia 68.8426
rfoot 5.2783 -5.46971
rtoes 2.02082
lfemur -4.02025 8.01486 -32.9106
ltibia 9.0269
lfoot -1.7695 -6.65384
ltoes 19.822
